<?xml version="1.0" standalone="no"?>
<!DOCTYPE svg PUBLIC "-//W3C//DTD SVG 20010904//EN"
 "http://www.w3.org/TR/2001/REC-SVG-20010904/DTD/svg10.dtd">
<svg version="1.0" xmlns="http://www.w3.org/2000/svg"
 width="128.000000pt" height="128.000000pt" viewBox="0 0 128.000000 128.000000"
 preserveAspectRatio="xMidYMid meet">

<g transform="translate(0.000000,128.000000) scale(0.100000,-0.100000)"
fill="#000000" stroke="none">
<path d="M555 1259 c-233 -34 -421 -191 -507 -425 -31 -86 -32 -281 -1 -374
72 -217 220 -356 452 -424 144 -42 357 -1 491 94 205 147 301 375 261 620 -53
321 -373 555 -696 509z m434 -232 c67 -28 81 -50 22 -34 -77 21 -155 -38 -218
-164 -66 -135 -133 -391 -164 -624 -21 -164 -22 -162 -69 135 -44 276 -151
530 -237 567 -19 7 -38 11 -43 8 -6 -4 -10 0 -10 9 0 22 83 50 126 43 48 -8
120 -69 161 -136 17 -29 35 -52 39 -52 4 -1 19 21 33 48 60 111 109 168 176
199 62 29 114 30 184 1z"/>
</g>
</svg>
