<svg width="232" height="130" viewBox="0 0 232 130" fill="none" xmlns="http://www.w3.org/2000/svg">
<rect width="232" height="130" fill="#092963"/>
<path fill-rule="evenodd" clip-rule="evenodd" d="M116.487 24C114.958 24 113.719 25.2549 113.719 26.8022V28.6381L108.099 25.4879C107.011 24.8764 105.639 25.2734 105.036 26.3752C104.431 27.4769 104.824 28.8664 105.912 29.4783L110.192 31.8773L113.823 29.8644L114.871 29.2834L119.254 26.8535V26.8022C119.254 25.2549 118.015 24 116.487 24Z" fill="white"/>
<path fill-rule="evenodd" clip-rule="evenodd" d="M131.695 38.999L131.622 38.9567L122.86 33.8669L118.432 36.4954L118.305 36.5711L129.022 42.9419C129.294 43.1445 129.568 43.8716 129.568 44.2125V58.1506C129.568 58.4911 129.298 59.2181 129.027 59.4212L117.237 66.3788C117.167 66.4093 116.943 66.4887 116.555 66.4887C116.165 66.4887 115.923 66.4093 115.855 66.3788L103.849 59.4164C103.562 59.2181 103.012 58.4868 103.012 58.1358V44.2277C103.012 43.8777 103.576 43.1445 103.863 42.9472L114.146 36.9596L115.447 36.2449L116.02 35.9296L116.728 35.5411L121.361 32.9957L121.428 32.9586L123.554 31.7908L126.829 29.9924C127.926 29.3985 128.34 28.0162 127.754 26.9045C127.168 25.7922 125.803 25.3724 124.705 25.9668L121.928 27.4922L121.004 28.0062L119.254 28.98L116.783 30.3552L114.897 31.4047L114.455 31.6505L112.113 32.9539L111.472 33.3105L107.444 35.5516L102.89 38.048L101.197 38.999C99.5665 39.9548 97.7012 42.2962 97.7012 44.2039V58.1582C97.7012 60.0659 99.5604 62.4083 101.191 63.3631L113.388 70.3369C114.203 70.8139 115.396 71.054 116.469 71.054C117.541 71.054 118.673 70.8139 119.489 70.3369L131.672 63.3631C133.303 62.4083 134.88 60.0659 134.88 58.1582V44.2039C134.88 42.2962 133.328 39.9548 131.695 38.999Z" fill="white"/>
<path d="M122.364 52.0821C122.27 52.2734 122.116 52.4285 121.926 52.5239V52.5288L114.122 56.4649C113.64 56.7079 113.055 56.5107 112.814 56.0245C112.745 55.8863 112.71 55.7338 112.711 55.5793V47.707C112.711 47.1635 113.147 46.7228 113.686 46.7225C113.837 46.7224 113.987 46.758 114.122 46.8263L121.926 50.7624C122.409 51.0049 122.605 51.5957 122.364 52.0821Z" fill="#FCBE4B"/>
<path d="M46.4647 81.2315L52.8315 97.7759H56.2473L62.6141 81.2315H58.3153L54.5278 90.9909L50.7867 81.2315H46.4647ZM66.6887 85.6929C67.8273 85.6929 68.78 84.7402 68.78 83.6017C68.78 82.4631 67.8273 81.5104 66.6887 81.5104C65.5036 81.5104 64.5974 82.4631 64.5974 83.6017C64.5974 84.7402 65.5036 85.6929 66.6887 85.6929ZM64.853 97.7759H68.5244V87.1336H64.853V97.7759ZM75.3713 87.1336H71.6999V97.7759H75.3713V92.1759C75.3713 91.3162 76.5099 90.6191 77.8808 90.6191L78.7871 86.9477C77.6717 86.9477 76.4402 87.1801 75.3713 87.7378V87.1336ZM85.1829 97.7759H88.4128L87.4601 94.1743H85.2294C85.09 94.1743 84.9738 94.0349 84.9738 93.849V90.5494H87.6227V87.1336H84.9738V83.8108H81.3024V87.1336H80.0244V90.5494H81.3024V93.8954C81.3024 96.0797 83.0452 97.7759 85.1829 97.7759ZM91.655 96.5676C92.631 97.4739 93.8625 97.9618 95.187 97.9618C96.4882 97.9618 97.743 97.4739 98.6957 96.5676C99.6484 95.6149 100.183 94.3834 100.183 93.0822V87.1336H96.5115V93.0822C96.5115 93.756 95.9073 94.3369 95.187 94.3369C94.4666 94.3369 93.8625 93.756 93.8625 93.0822V87.1336H90.1911V93.0822C90.1911 94.3834 90.7023 95.6149 91.655 96.5676ZM107.846 86.9477C106.382 86.9477 104.988 87.5054 103.919 88.551C102.897 89.5967 102.316 90.9909 102.316 92.4548C102.316 93.9419 102.897 95.3129 103.919 96.3817C104.988 97.4041 106.359 97.9618 107.846 97.9618C108.474 97.9618 109.24 97.7295 109.682 97.288V97.7759H113.377V87.1336H109.682V87.6216C109.24 87.1801 108.474 86.9477 107.846 86.9477ZM107.846 94.3369C106.801 94.3369 105.987 93.4772 105.987 92.4548C105.987 91.4324 106.801 90.5726 107.846 90.5726C108.869 90.5726 109.682 91.4324 109.682 92.4548C109.682 93.4772 108.869 94.3369 107.846 94.3369Z" fill="white"/>
<path d="M126.892 97.7759H138.766V93.8025H130.912V81.2315H126.892V97.7759ZM145.279 97.9386C146.325 97.9153 147.301 97.6365 148.044 97.1718C149.067 96.5444 149.88 95.4988 150.066 95.2896L147.115 93.8257C147.045 93.9187 146.882 94.1046 146.627 94.2905C146.348 94.4763 145.907 94.7319 145.395 94.7319C145.186 94.7319 144.094 94.6622 144.094 93.361V93.3145H150.321C150.321 93.2913 150.321 93.2216 150.321 93.1519C150.345 92.7336 150.391 91.8971 150.275 91.2929C150.112 90.3867 149.648 89.4805 148.951 88.7137C147.998 87.6448 146.697 87.0639 145.256 87.0639C143.838 87.0639 142.537 87.6448 141.561 88.7137C140.887 89.4805 140.469 90.3402 140.26 91.2697C140.167 91.6647 140.121 92.083 140.121 92.5012C140.121 92.6639 140.121 92.8266 140.144 92.9892C140.237 94.1975 140.725 95.3593 141.561 96.312C142.537 97.3577 143.862 97.9386 145.256 97.9386H145.279ZM145.256 90.1311C145.604 90.1311 146.278 90.41 146.394 91.107L146.418 91.1768H144.117L144.141 91.107C144.257 90.3867 144.954 90.1311 145.256 90.1311ZM157.337 86.9477C155.873 86.9477 154.479 87.5054 153.41 88.551C152.388 89.5967 151.807 90.9909 151.807 92.4548C151.807 93.9419 152.388 95.3129 153.41 96.3817C154.479 97.4041 155.85 97.9618 157.337 97.9618C157.965 97.9618 158.731 97.7295 159.173 97.288V97.7759H162.867V87.1336H159.173V87.6216C158.731 87.1801 157.965 86.9477 157.337 86.9477ZM157.337 94.3369C156.292 94.3369 155.478 93.4772 155.478 92.4548C155.478 91.4324 156.292 90.5726 157.337 90.5726C158.36 90.5726 159.173 91.4324 159.173 92.4548C159.173 93.4772 158.36 94.3369 157.337 94.3369ZM169.429 87.1336H165.758V97.7759H169.429V92.1759C169.429 91.3162 170.568 90.6191 171.939 90.6191L172.845 86.9477C171.73 86.9477 170.498 87.1801 169.429 87.7378V87.1336ZM183.431 88.4581C182.455 87.4822 181.131 86.971 179.76 86.971C179.225 86.971 178.435 87.1801 178.249 87.6216V87.1336H174.578V97.7759H178.249V92.1295C178.249 91.2929 178.923 90.5958 179.76 90.5958C180.573 90.5958 181.247 91.2929 181.247 92.1295V97.7759H184.918V92.1295C184.918 90.7353 184.384 89.4573 183.431 88.4813V88.4581Z" fill="#EE5C4D"/>
<path d="M127.328 97.7759H115.454V93.8025H123.308V81.2315H127.328V97.7759Z" fill="white"/>
</svg>
